<svg id="Layer_1" enable-background="new 0 0 512 512" height="512" viewBox="0 0 512 512" width="512" xmlns="http://www.w3.org/2000/svg"><g><g fill="#feaf82"><path d="m118.887 354.771c-3.126.833-6.411 1.277-9.8 1.277-20.965 0-37.96-16.995-37.96-37.96s15.955-37.96 40.89-37.96z"/><path d="m393.113 354.771c3.126.833 6.411 1.277 9.8 1.277 20.965 0 37.96-16.995 37.96-37.96s-15.955-37.96-40.89-37.96z"/></g><path d="m398.32 360.449c.29 3.55.44 7.16.44 10.77 0 34-28.95 74.62-86.07 120.751-16.01 13-36.04 20.08-56.69 20.03-.37 0-.73 0-1.1-.01-20.26-.19-39.87-7.25-55.59-20.02-57.12-46.13-86.07-86.75-86.07-120.751 0-3.61.15-7.22.44-10.77.37-3.69 1.95-11.56 2.11-20.6 0-42.9-38.85-121.52 23.62-180.661 29.43-27.87 66.28-38.85 115.49-39.01h1.1c49.76 0 86.94 10.93 116.59 39.01 62.47 59.14 23.62 137.761 23.62 180.661.16 9.04 1.74 16.91 2.11 20.6z" fill="#ffe6c7"/><path d="m398.32 360.449c.29 3.55.44 7.16.44 10.77 0 34-28.95 74.62-86.07 120.751-16.01 13-36.04 20.08-56.69 20.03-.37 0-.73 0-1.1-.01 16.66-.19 32.76-7.25 45.68-20.02 46.93-46.13 70.71-86.75 70.71-120.751 0-3.61-.12-7.22-.36-10.77-.3-3.69-1.6-11.56-1.74-20.6 0-42.9 31.92-121.52-19.4-180.661-24.18-27.87-54.46-38.85-94.89-39.01h1.1c49.76 0 86.94 10.93 116.59 39.01 62.47 59.14 23.62 137.761 23.62 180.661.16 9.04 1.74 16.91 2.11 20.6z" fill="#ffd5b0"/><g fill="#feaf82"><path d="m241.435 391.062c4.142 0 7.5-3.358 7.5-7.5 0-3.618 2.944-6.562 6.562-6.562s6.562 2.944 6.562 6.562c0 4.142 3.358 7.5 7.5 7.5s7.5-3.358 7.5-7.5c0-11.889-9.673-21.562-21.562-21.562s-21.562 9.673-21.562 21.562c0 4.142 3.357 7.5 7.5 7.5z"/><path d="m310.75 404.421c-3.608-2.029-8.182-.751-10.215 2.857-9.147 16.253-26.404 26.35-45.038 26.35s-35.891-10.097-45.038-26.35c-2.033-3.609-6.604-4.888-10.215-2.857-3.609 2.032-4.889 6.605-2.857 10.215 11.801 20.967 34.067 33.992 58.11 33.992s46.309-13.025 58.11-33.992c2.032-3.61.753-8.183-2.857-10.215z"/><path d="m223.451 333.511c1.377 2.447 3.922 3.823 6.543 3.823 1.246 0 2.509-.311 3.671-.965 3.61-2.032 4.889-6.605 2.858-10.214-7.288-12.95-21.041-20.995-35.892-20.995s-28.604 8.045-35.892 20.995c-2.031 3.61-.752 8.183 2.858 10.214s8.183.752 10.214-2.858c4.635-8.235 13.378-13.352 22.819-13.352s18.186 5.117 22.821 13.352z"/><path d="m346.254 326.154c-7.289-12.95-21.042-20.995-35.892-20.995-14.851 0-28.604 8.045-35.892 20.995-2.031 3.61-.752 8.183 2.858 10.214 3.609 2.031 8.183.752 10.214-2.858 4.635-8.235 13.378-13.352 22.819-13.352 9.44 0 18.185 5.116 22.82 13.352 1.377 2.447 3.922 3.823 6.543 3.823 1.246 0 2.509-.311 3.672-.965 3.61-2.031 4.889-6.604 2.858-10.214z"/></g><path d="m350.53 94.358c0 34.38-18.39 64.44-45.86 80.93-8.92 5.35-14.44 14.91-14.44 25.31h-68.11c0-10.45-5.61-19.99-14.56-25.38-27.11-16.33-45.34-45.88-45.74-79.73-.56-47.76 35.1-88.17 81.38-94.59 3.5-.49 7.06-.78 10.67-.87 53.17-1.27 96.66 41.45 96.66 94.33z" fill="#ffd469"/><path d="m350.53 94.358c0 34.38-18.39 64.44-45.86 80.93-8.92 5.35-14.44 14.91-14.44 25.31h-26c0-10.4 5.52-19.96 14.44-25.31 27.47-16.49 45.86-46.55 45.86-80.93 0-47.69-35.38-87.13-81.33-93.46 3.5-.49 7.06-.78 10.67-.87 53.17-1.27 96.66 41.45 96.66 94.33z" fill="#ffba4c"/><path d="m284.061 96.558c-4.142 0-7.5 3.358-7.5 7.5 0 11.242-9.146 20.387-20.388 20.387s-20.388-9.146-20.388-20.387c0-4.142-3.358-7.5-7.5-7.5s-7.5 3.358-7.5 7.5c0 16.94 11.965 31.138 27.888 34.587v61.949h15v-61.949c15.923-3.449 27.888-17.647 27.888-34.587 0-4.143-3.358-7.5-7.5-7.5z" fill="#fff"/><path d="m288.95 200.598v58.72c0 3.31-2.69 6-6 6h-53.55c-3.32 0-6.01-2.69-6.01-6v-58.72z" fill="#57616c"/><path d="m264.23 200.598h24.72v58.72c0 3.31-2.69 6-6 6h-24.72c3.31 0 6-2.69 6-6z" fill="#3a4b56"/><g fill="#a1adb4"><path d="m207.004 208.1h98.337c4.142 0 7.5-3.358 7.5-7.5s-3.358-7.5-7.5-7.5h-98.337c-4.142 0-7.5 3.358-7.5 7.5s3.358 7.5 7.5 7.5z"/><path d="m305.341 225.04h-98.337c-4.142 0-7.5 3.358-7.5 7.5s3.358 7.5 7.5 7.5h98.337c4.142 0 7.5-3.358 7.5-7.5s-3.358-7.5-7.5-7.5z"/></g><g fill="#a6dff5"><path d="m162.545 194.554-50.77-37.754v-79.288c0-4.142-3.358-7.5-7.5-7.5s-7.5 3.358-7.5 7.5v83.058c0 2.372 1.122 4.603 3.024 6.019l53.794 40.003c1.345 1 2.914 1.482 4.47 1.482 2.291 0 4.552-1.045 6.024-3.025 2.473-3.325 1.782-8.023-1.542-10.495z"/><path d="m408.07 70.001c-4.142 0-7.5 3.358-7.5 7.5v79.289l-50.77 37.753c-3.324 2.472-4.015 7.17-1.543 10.494 1.472 1.979 3.733 3.025 6.024 3.025 1.556 0 3.125-.482 4.47-1.482l53.794-40.003c1.903-1.416 3.024-3.647 3.024-6.019v-83.057c.001-4.142-3.357-7.5-7.499-7.5z"/></g><g fill="#f55c80"><circle cx="104.276" cy="62.511" r="22.501"/><circle cx="408.07" cy="62.5" r="22.501"/></g></g></svg>